<svg width="40" height="40" viewBox="0 0 40 40" fill="none" xmlns="http://www.w3.org/2000/svg">
<path d="M11.4648 31.4998C10.7815 31.4998 10.2148 30.9331 10.2148 30.2498V26.7998C10.2148 26.1165 10.7815 25.5498 11.4648 25.5498C12.1482 25.5498 12.7148 26.1165 12.7148 26.7998V30.2498C12.7148 30.9498 12.1482 31.4998 11.4648 31.4998Z" fill="#1082DF"/>
<path d="M20 31.5002C19.3167 31.5002 18.75 30.9335 18.75 30.2502V23.3335C18.75 22.6502 19.3167 22.0835 20 22.0835C20.6833 22.0835 21.25 22.6502 21.25 23.3335V30.2502C21.25 30.9502 20.6833 31.5002 20 31.5002Z" fill="#1082DF"/>
<path d="M28.5352 31.5C27.8518 31.5 27.2852 30.9333 27.2852 30.25V19.8833C27.2852 19.2 27.8518 18.6333 28.5352 18.6333C29.2185 18.6333 29.7852 19.2 29.7852 19.8833V30.25C29.7852 30.95 29.2352 31.5 28.5352 31.5Z" fill="#1082DF"/>
<path d="M11.4653 21.9669C10.8987 21.9669 10.3987 21.5835 10.2487 21.0169C10.082 20.3502 10.482 19.6669 11.1653 19.5002C17.2987 17.9669 22.6987 14.6169 26.8153 9.83352L27.582 8.93352C28.032 8.41686 28.8153 8.35019 29.3487 8.80019C29.8653 9.25019 29.932 10.0335 29.482 10.5669L28.7153 11.4669C24.2653 16.6669 18.3987 20.2835 11.7653 21.9335C11.6653 21.9669 11.5653 21.9669 11.4653 21.9669Z" fill="#1082DF"/>
<path d="M28.5318 15.8667C27.8484 15.8667 27.2818 15.3 27.2818 14.6167V11H23.6484C22.9651 11 22.3984 10.4333 22.3984 9.75C22.3984 9.06667 22.9651 8.5 23.6484 8.5H28.5318C29.2151 8.5 29.7818 9.06667 29.7818 9.75V14.6333C29.7818 15.3167 29.2318 15.8667 28.5318 15.8667Z" fill="#1082DF"/>
<path d="M25.0026 37.9168H15.0026C5.9526 37.9168 2.08594 34.0502 2.08594 25.0002V15.0002C2.08594 5.95016 5.9526 2.0835 15.0026 2.0835H25.0026C34.0526 2.0835 37.9193 5.95016 37.9193 15.0002V25.0002C37.9193 34.0502 34.0526 37.9168 25.0026 37.9168ZM15.0026 4.5835C7.31927 4.5835 4.58594 7.31683 4.58594 15.0002V25.0002C4.58594 32.6835 7.31927 35.4168 15.0026 35.4168H25.0026C32.6859 35.4168 35.4193 32.6835 35.4193 25.0002V15.0002C35.4193 7.31683 32.6859 4.5835 25.0026 4.5835H15.0026Z" fill="#1082DF"/>
</svg>
