<svg width="40" height="40" viewBox="0 0 40 40" fill="none" xmlns="http://www.w3.org/2000/svg">
<path d="M23.3333 10.3334V16.6668C18.6833 16.7502 16.7499 18.6835 16.6666 23.3335H10.3333C5.33325 23.3335 3.33325 21.3336 3.33325 16.3336V10.3334C3.33325 5.33341 5.33325 3.3335 10.3333 3.3335H16.3333C21.3333 3.3335 23.3333 5.33341 23.3333 10.3334Z" stroke="#1082DF" stroke-width="2" stroke-linecap="round" stroke-linejoin="round"/>
<path d="M11.5986 9.7833C10.7153 9.1833 9.54862 9.18334 8.66528 9.81667" stroke="#1082DF" stroke-width="2" stroke-miterlimit="10" stroke-linecap="round" stroke-linejoin="round"/>
<path d="M18.2654 9.7833C17.382 9.1833 16.2154 9.18334 15.332 9.81667" stroke="#1082DF" stroke-width="2" stroke-miterlimit="10" stroke-linecap="round" stroke-linejoin="round"/>
<path d="M13.6014 19.0333H9.73472C9.23472 19.0333 8.83472 18.6332 8.83472 18.1332C8.83472 15.6499 10.8514 13.6333 13.3347 13.6333C14.4014 13.6333 15.3847 13.9999 16.1514 14.6166" stroke="#1082DF" stroke-width="2" stroke-miterlimit="10" stroke-linecap="round" stroke-linejoin="round"/>
<path d="M36.6667 23.6664V29.6666C36.6667 34.6666 34.6667 36.6665 29.6667 36.6665H23.6667C18.6667 36.6665 16.6667 34.6666 16.6667 29.6666V23.3332C16.7501 18.6832 18.6834 16.7498 23.3334 16.6665H29.6667C34.6667 16.6665 36.6667 18.6664 36.6667 23.6664Z" stroke="#1082DF" stroke-width="2" stroke-linecap="round" stroke-linejoin="round"/>
<path d="M24.9321 22.6999C24.0488 23.2999 22.8821 23.2998 21.9988 22.6665" stroke="#1082DF" stroke-width="2" stroke-miterlimit="10" stroke-linecap="round" stroke-linejoin="round"/>
<path d="M31.5986 22.6999C30.7153 23.2999 29.5486 23.2998 28.6653 22.6665" stroke="#1082DF" stroke-width="2" stroke-miterlimit="10" stroke-linecap="round" stroke-linejoin="round"/>
<path d="M23.068 26.9668H30.268C30.768 26.9668 31.168 27.3667 31.168 27.8667C31.168 30.35 29.1513 32.3668 26.668 32.3668C24.1846 32.3668 22.168 30.35 22.168 27.8667C22.168 27.3667 22.568 26.9668 23.068 26.9668Z" stroke="#1082DF" stroke-width="2" stroke-miterlimit="10" stroke-linecap="round" stroke-linejoin="round"/>
</svg>
